<svg width="12" height="12" viewBox="0 0 12 12" fill="none" xmlns="http://www.w3.org/2000/svg">
<path id="Vector 1 (Stroke)" fill-rule="evenodd" clip-rule="evenodd" d="M4.73488 6L0.632559 1.89768C0.283206 1.54832 0.283206 0.981912 0.632559 0.632559C0.981912 0.283206 1.54832 0.283206 1.89768 0.632558L6 4.73488L10.1023 0.632559C10.4517 0.283206 11.0181 0.283206 11.3674 0.632559C11.7168 0.981911 11.7168 1.54832 11.3674 1.89768L7.26512 6L11.3674 10.1023C11.7168 10.4517 11.7168 11.0181 11.3674 11.3674C11.0181 11.7168 10.4517 11.7168 10.1023 11.3674L6 7.26512L1.89768 11.3674C1.54832 11.7168 0.981911 11.7168 0.632559 11.3674C0.283206 11.0181 0.283206 10.4517 0.632558 10.1023L4.73488 6Z" fill="#667085"/>
</svg>
