<svg width="20" height="20" viewBox="0 0 20 20" fill="none" xmlns="http://www.w3.org/2000/svg">
<g id="Chat / chat">
<path id="Vector" d="M6.66668 9.16666C6.50186 9.16666 6.34074 9.21553 6.2037 9.3071C6.06666 9.39867 5.95985 9.52881 5.89678 9.68109C5.8337 9.83336 5.8172 10.0009 5.84936 10.1626C5.88151 10.3242 5.96088 10.4727 6.07742 10.5892C6.19397 10.7058 6.34245 10.7852 6.5041 10.8173C6.66575 10.8495 6.83331 10.833 6.98558 10.7699C7.13785 10.7068 7.268 10.6 7.35957 10.463C7.45114 10.3259 7.50001 10.1648 7.50001 9.99999C7.50001 9.77898 7.41221 9.56701 7.25593 9.41073C7.09965 9.25445 6.88769 9.16666 6.66668 9.16666ZM10 9.16666C9.83519 9.16666 9.67408 9.21553 9.53703 9.3071C9.39999 9.39867 9.29318 9.52881 9.23011 9.68109C9.16704 9.83336 9.15054 10.0009 9.18269 10.1626C9.21484 10.3242 9.29421 10.4727 9.41076 10.5892C9.5273 10.7058 9.67578 10.7852 9.83744 10.8173C9.99909 10.8495 10.1666 10.833 10.3189 10.7699C10.4712 10.7068 10.6013 10.6 10.6929 10.463C10.7845 10.3259 10.8333 10.1648 10.8333 9.99999C10.8333 9.77898 10.7455 9.56701 10.5893 9.41073C10.433 9.25445 10.221 9.16666 10 9.16666ZM13.3333 9.16666C13.1685 9.16666 13.0074 9.21553 12.8704 9.3071C12.7333 9.39867 12.6265 9.52881 12.5634 9.68109C12.5004 9.83336 12.4839 10.0009 12.516 10.1626C12.5482 10.3242 12.6275 10.4727 12.7441 10.5892C12.8606 10.7058 13.0091 10.7852 13.1708 10.8173C13.3324 10.8495 13.5 10.833 13.6522 10.7699C13.8045 10.7068 13.9347 10.6 14.0262 10.463C14.1178 10.3259 14.1667 10.1648 14.1667 9.99999C14.1667 9.77898 14.0789 9.56701 13.9226 9.41073C13.7663 9.25445 13.5544 9.16666 13.3333 9.16666ZM10 1.66666C8.90566 1.66666 7.82203 1.8822 6.81098 2.30099C5.79993 2.71978 4.88128 3.33361 4.10745 4.10743C2.54465 5.67024 1.66668 7.78985 1.66668 9.99999C1.65939 11.9243 2.32567 13.7904 3.55001 15.275L1.88334 16.9417C1.76771 17.0588 1.68938 17.2077 1.65824 17.3693C1.62709 17.531 1.64453 17.6982 1.70834 17.85C1.77756 17.9999 1.88976 18.1259 2.03072 18.212C2.17167 18.298 2.33501 18.3403 2.50001 18.3333H10C12.2101 18.3333 14.3298 17.4553 15.8926 15.8925C17.4554 14.3297 18.3333 12.2101 18.3333 9.99999C18.3333 7.78985 17.4554 5.67024 15.8926 4.10743C14.3298 2.54463 12.2101 1.66666 10 1.66666ZM10 16.6667H4.50834L5.28334 15.8917C5.36208 15.8145 5.42473 15.7224 5.46764 15.6209C5.51055 15.5193 5.53289 15.4102 5.53334 15.3C5.53021 15.0802 5.44036 14.8705 5.28334 14.7167C4.19217 13.6267 3.51266 12.1921 3.36059 10.6573C3.20852 9.12253 3.5933 7.58249 4.44937 6.29959C5.30544 5.01669 6.57984 4.07029 8.05544 3.62163C9.53104 3.17298 11.1166 3.24983 12.5419 3.83908C13.9672 4.42834 15.1441 5.49355 15.872 6.85323C16.6 8.21291 16.8341 9.78294 16.5343 11.2958C16.2345 12.8087 15.4194 14.1709 14.228 15.1502C13.0365 16.1295 11.5423 16.6654 10 16.6667Z" fill="#101828"/>
</g>
</svg>
