<svg width="18" height="19" viewBox="0 0 18 19" fill="none" xmlns="http://www.w3.org/2000/svg">
<g id="Monochrome / star">
<path id="Vector" d="M13.1718 16.6697C13.0503 16.6696 12.9305 16.6401 12.8228 16.5836L8.99997 14.5739L5.17709 16.5836C5.05321 16.6487 4.91359 16.6779 4.774 16.6678C4.63441 16.6577 4.50043 16.6088 4.38721 16.5265C4.27398 16.4443 4.18602 16.332 4.13327 16.2023C4.08052 16.0727 4.06509 15.9309 4.08872 15.793L4.81894 11.5361L1.72629 8.52188C1.6261 8.42417 1.55525 8.30038 1.52172 8.16451C1.4882 8.02864 1.49335 7.88609 1.53658 7.75299C1.57982 7.61989 1.65943 7.50154 1.7664 7.41131C1.87338 7.32107 2.00346 7.26256 2.14194 7.24238L6.41599 6.62129L8.32722 2.74854C8.3963 2.63158 8.49468 2.53465 8.61265 2.46731C8.73062 2.39998 8.86411 2.36456 8.99995 2.36456C9.13579 2.36456 9.26928 2.39998 9.38725 2.46731C9.50522 2.53465 9.6036 2.63158 9.67268 2.74854L11.5839 6.62122L15.858 7.24232C15.9965 7.2625 16.1265 7.32101 16.2335 7.41124C16.3405 7.50147 16.4201 7.61982 16.4633 7.75293C16.5066 7.88603 16.5117 8.02857 16.4782 8.16444C16.4447 8.30031 16.3738 8.4241 16.2736 8.52182L13.181 11.5361L13.9112 15.7929C13.9297 15.9006 13.9244 16.011 13.8957 16.1164C13.8671 16.2218 13.8157 16.3197 13.7453 16.4032C13.6749 16.4867 13.5871 16.5538 13.488 16.5998C13.389 16.6458 13.281 16.6697 13.1718 16.6697L13.1718 16.6697Z" fill="#98A2B3"/>
</g>
</svg>
